<svg xmlns="http://www.w3.org/2000/svg" width="288" height="95" viewBox="0 0 288 95">
  <defs>
    <style>
      .cls-1 {
        fill: #fff;
        fill-rule: evenodd;
      }
    </style>
  </defs>
  <path id="Shape_316_1" data-name="Shape 316 1" class="cls-1" d="M4,5H86.854s19.839,0.5,20.209,17.384,2.23,15.26,19.2,15.338,40.417,1.023,40.417,1.023,18.963,0.971,19.2,17.383,0,15.338,0,15.338,0.413,18.092-20.209,18.406-58.6,0-58.6,0,8.914-2.546,9.094-17.384l37.385-1.022s7.2,0.05,7.073-7.158-7.073-7.158-7.073-7.158-30.855-.18-54.563-2.045c0,0-16.257-.735-16.167-17.383V26.474l-2.021-2.045H28.25V70.444H80.792a3.992,3.992,0,0,0,4.042-4.09c0.068-4.107,0-8.18,0-8.18s3.507,5.233,22.229,5.113c0,0,9.252,26.273-25.261,26.587s-77.8,0-77.8,0V5Z"/>
  <path id="Shape_318_1" data-name="Shape 318 1" class="cls-1" d="M108,5h74.418s-6.938,8.946-7.039,18.434H116.045S115.411,10.214,108,5ZM282.983,23.434V5H199.514s-17.164.539-17.1,20.482V37.771s0.636,17.318,18.1,17.41,54.3,2.048,54.3,2.048a6.757,6.757,0,0,1,6.034,7.169,8.338,8.338,0,0,1-6.034,8.193h-62.35S192.815,83.1,184.429,90H267.9s18.144-1.741,18.1-19.458,0-13.313,0-13.313S285.862,38.78,266.893,38.8s-51.288-1.024-51.288-1.024-8.054.222-8.046-8.193,8.046-7.169,8.046-7.169Z"/>
</svg>
